<?xml version="1.0" standalone="no"?>
<!DOCTYPE svg PUBLIC "-//W3C//DTD SVG 20010904//EN"
 "http://www.w3.org/TR/2001/REC-SVG-20010904/DTD/svg10.dtd">
<svg version="1.0" xmlns="http://www.w3.org/2000/svg"
 width="64.000000pt" height="64.000000pt" viewBox="0 0 64.000000 64.000000"
 preserveAspectRatio="xMidYMid meet">
<metadata>
Created by potrace 1.16, written by Peter Selinger 2001-2019
</metadata>
<g transform="translate(0.000000,64.000000) scale(0.100000,-0.100000)"
fill="#000000" stroke="none">
<path d="M252 587 c-67 -38 -77 -141 -18 -196 33 -32 100 -39 142 -16 77 41
84 159 12 209 -27 19 -104 20 -136 3z"/>
<path d="M261 320 c-96 -24 -161 -111 -161 -217 l0 -63 221 0 221 0 -4 73 c-3
60 -8 82 -30 115 -49 74 -158 115 -247 92z"/>
</g>
</svg>
