<?xml version="1.0" standalone="no"?>
<!DOCTYPE svg PUBLIC "-//W3C//DTD SVG 20010904//EN"
 "http://www.w3.org/TR/2001/REC-SVG-20010904/DTD/svg10.dtd">
<svg version="1.0" xmlns="http://www.w3.org/2000/svg"
 width="500.000000pt" height="152.000000pt" viewBox="0 0 500.000000 152.000000"
 preserveAspectRatio="xMidYMid meet">
<metadata>
Created by potrace 1.16, written by Peter Selinger 2001-2019
</metadata>
<g transform="translate(0.000000,152.000000) scale(0.100000,-0.100000)"
fill="#000000" stroke="none">
<path d="M1510 1183 c-22 -4 -46 -50 -217 -416 -106 -227 -195 -420 -199 -429
-5 -14 -1 -18 20 -18 23 0 31 12 77 110 l52 110 279 -2 279 -3 48 -105 c43
-91 53 -105 76 -108 22 -3 26 0 21 15 -14 45 -395 848 -403 849 -4 0 -19 -1
-33 -3z m138 -316 c67 -145 122 -267 122 -270 0 -4 -113 -7 -251 -7 -235 0
-251 1 -244 18 18 47 241 522 245 522 3 0 60 -119 128 -263z"/>
<path d="M2973 1178 c-6 -7 -92 -188 -192 -403 -99 -214 -184 -389 -188 -388
-3 1 -90 179 -191 397 -179 384 -186 396 -213 396 l-28 0 43 -92 c355 -765
357 -768 390 -768 l31 0 198 423 c108 233 197 429 197 435 0 16 -35 15 -47 0z"/>
<path d="M3420 1123 c-182 -387 -370 -792 -370 -797 0 -3 11 -6 25 -6 22 0 31
13 76 110 l52 110 279 -2 279 -3 48 -105 c43 -91 53 -105 76 -108 22 -3 26 0
21 15 -3 11 -85 188 -182 394 -97 206 -184 393 -195 417 -15 36 -23 42 -48 42
-26 0 -32 -7 -61 -67z m188 -256 c67 -145 122 -267 122 -270 0 -4 -113 -7
-251 -7 -235 0 -251 1 -245 18 18 45 242 522 246 522 3 0 60 -119 128 -263z"/>
<path d="M2030 750 l0 -430 25 0 25 0 0 430 0 430 -25 0 -25 0 0 -430z"/>
</g>
</svg>
